# Blender 3.3.1
# www.blender.org
mtllib test1.mtl
o Cube
v 1.000000 -1.000000 1.000000
v 1.000000 -1.000000 -1.000000
v -1.000000 -1.000000 1.000000
v -1.000000 -1.000000 -1.000000
v 1.000000 1.000000 1.000000
v 1.000000 1.000000 -1.000000
v -1.000000 1.000000 1.000000
v -1.000000 1.000000 -1.000000
vn -0.0000 -0.0000 1.0000
vn -1.0000 -0.0000 -0.0000
vn -0.0000 1.0000 -0.0000
vn -0.0000 -0.0000 -1.0000
vn -0.0000 -1.0000 -0.0000
vn 1.0000 -0.0000 -0.0000
vt 0.607101 0.672684
vt 0.207428 0.757954
vt 0.138285 0.688811
vt 0.207428 0.688811
vt 0.607101 0.741827
vt 0.745386 0.741827
vt 0.138285 0.757954
vt 0.745386 0.672684
vt 0.138285 0.757954
vt 0.138285 0.688811
vt 0.676243 0.672684
vt 0.000000 0.757954
vt 0.276570 0.757954
vt 0.069143 0.688811
vt 0.276570 0.688811
vt 0.000000 0.688811
vt 0.676243 0.741827
vt 0.069143 0.757954
vt 0.069143 0.688811
vt 0.676243 0.672684
vt 0.069143 0.757954
s 0
usemtl Material
f 5/11/1 3/5/1 1/1/1
f 3/6/2 8/20/2 4/8/2
f 7/18/3 6/16/3 8/19/3
f 2/3/4 8/21/4 6/14/4
f 1/2/5 4/10/5 2/4/5
f 5/13/6 2/4/6 6/15/6
f 5/11/1 7/17/1 3/5/1
f 3/6/2 7/17/2 8/20/2
f 7/18/3 5/12/3 6/16/3
f 2/3/4 4/9/4 8/21/4
f 1/2/5 3/7/5 4/10/5
f 5/13/6 1/2/6 2/4/6
o Cube_Cube.001
v -4.981091 4.981091 -0.089950
v -4.981091 4.981091 0.089950
v 4.981091 4.981091 -0.089950
v 4.981091 4.981091 0.089950
v -4.981091 -4.981091 -0.089950
v -4.981091 -4.981091 0.089950
v 4.981091 -4.981091 -0.089950
v 4.981091 -4.981091 0.089950
v -4.774162 4.981091 -0.089950
v -4.774162 4.981091 0.089950
v -4.774162 -4.981091 -0.089950
v -4.774162 -4.981091 0.089950
v 4.721532 4.981091 0.089950
v 4.721532 -4.981091 -0.089950
v 4.721532 4.981091 -0.089950
v 4.721532 -4.981091 0.089950
v 4.981091 -4.737733 -0.089950
v 4.981091 -4.737733 0.089950
v -4.981091 -4.737733 -0.089950
v -4.981091 -4.737733 0.089950
v -4.774162 -4.737733 0.089950
v -4.774162 -4.737733 -0.089950
v 4.721532 -4.737733 -0.089950
v 4.721532 -4.737733 0.089950
v 4.981091 4.730112 -0.089950
v -4.981091 4.730112 0.089950
v -4.774162 4.730112 -0.089950
v 4.721532 4.730112 -0.089950
v 4.981091 4.730112 0.089950
v -4.981091 4.730112 -0.089950
v -4.774162 4.730112 0.089950
v 4.721532 4.730112 0.089950
v 4.721532 4.981091 3.889270
v 4.981091 4.981091 3.889270
v 4.981091 -4.737733 3.889270
v 4.981091 -4.981091 3.889270
v -4.774162 -4.981091 3.889270
v -4.981091 -4.981091 3.889270
v -4.981091 4.730112 3.889270
v -4.981091 4.981091 3.889270
v -4.774162 4.981091 3.889270
v 4.721532 -4.981091 3.889270
v -4.774162 -4.737733 3.889270
v 4.721532 -4.737733 3.889270
v 4.981091 4.730112 3.889270
v -4.981091 -4.737733 3.889270
v -4.774162 4.730112 3.889270
v 4.721532 4.730112 3.889270
vn -0.0000 1.0000 -0.0000
vn 1.0000 -0.0000 -0.0000
vn -0.0000 -1.0000 -0.0000
vn -1.0000 -0.0000 -0.0000
vn -0.0000 -0.0000 -1.0000
vn -0.0000 -0.0000 1.0000
vt 0.481973 0.672684
vt 0.757106 0.672684
vt 0.000000 0.344406
vt 0.763326 0.672684
vt 0.475753 0.672684
vt 0.619539 0.328279
vt 0.000000 0.000000
vt 0.481973 0.328279
vt 0.475753 0.328279
vt 0.625759 0.328279
vt 0.757106 0.328279
vt 0.481973 0.672684
vt 0.344406 0.344406
vt 0.488192 0.672684
vt 0.763326 0.328279
vt 0.481973 0.328279
vt 0.619539 0.672684
vt 0.344406 0.000000
vt 0.625759 0.672684
vt 0.488192 0.328279
vt 0.481973 0.665530
vt 0.000000 0.337252
vt 0.475753 0.665530
vt 0.344406 0.337252
vt 0.481973 0.665530
vt 0.488192 0.665530
vt 0.475753 0.337252
vt 0.481973 0.337252
vt 0.344406 0.008973
vt 0.481973 0.337252
vt 0.000000 0.008973
vt 0.488192 0.337252
vt 0.335992 0.000000
vt 0.619539 0.664271
vt 0.625759 0.664271
vt 0.335992 0.344406
vt 0.757106 0.336692
vt 0.763326 0.336692
vt 0.475753 1.000000
vt 0.344406 0.328279
vt 0.934416 0.328279
vt 0.335992 0.337252
vt 0.335992 0.008973
vt 0.344406 0.000000
vt 0.934416 0.000000
vt 0.344406 0.672684
vt 0.619539 0.336955
vt 0.008677 0.000000
vt 0.763326 0.664008
vt 0.008677 0.337252
vt 0.008677 0.008973
vt 0.625759 0.336955
vt 0.008677 0.344406
vt 0.757106 0.664008
vt 0.671721 0.328279
vt 0.475753 0.672684
vt 0.344406 1.000000
vt 0.671721 0.000000
vt 0.344406 0.353379
vt 0.344406 0.337252
vt 0.344406 0.344406
vt 0.344406 0.328279
vt 0.757106 0.328279
vt 0.757106 0.664271
vt 0.008413 0.344406
vt 0.000000 0.344406
vt 0.757106 0.672684
vt 0.619539 0.328279
vt 0.000000 0.681657
vt 0.619539 0.665530
vt 0.000000 0.688811
vt 0.619539 0.672684
vt 0.894673 0.328279
vt 0.335729 0.688811
vt 0.894673 0.664008
vt 0.344406 0.672684
vt 0.344406 0.688811
vt 0.894673 0.672684
vt 0.344406 0.665530
vt 0.344406 0.681657
vt 0.000000 0.353379
vt 0.619539 0.337252
vt 0.008413 0.681657
vt 0.803069 0.328279
vt 0.607101 1.000000
vt 0.475753 0.672684
vt 0.008413 0.353379
vt 0.803069 0.000000
vt 0.335729 0.344406
vt 0.757106 0.336955
vt 0.008413 0.688811
vt 0.894673 0.336692
vt 0.803069 0.328279
vt 0.335729 0.681657
vt 0.607101 0.672684
vt 0.475753 1.000000
vt 0.803069 0.000000
vt 0.335729 0.353379
s 0
usemtl None
f 21/48/7 11/29/7 23/51/7
f 26/56/8 15/38/8 25/55/8
f 20/47/9 13/33/9 19/46/9
f 34/70/10 9/23/10 38/75/10
f 19/45/11 27/57/11 30/63/11
f 28/59/10 47/96/10 34/70/10
f 24/53/9 45/91/9 20/47/9
f 22/50/11 30/63/11 31/64/11
f 24/53/9 19/46/9 22/49/9
f 10/26/7 17/42/7 9/22/7
f 16/41/9 22/49/9 15/37/9
f 15/39/11 31/64/11 25/54/11
f 37/73/8 43/85/8 26/56/8
f 18/44/7 23/51/7 17/42/7
f 10/26/7 49/100/7 18/44/7
f 25/54/11 36/72/11 33/69/11
f 31/64/11 35/71/11 36/72/11
f 32/67/10 56/117/10 40/78/10
f 18/44/7 41/81/7 21/48/7
f 30/63/11 38/74/11 35/71/11
f 14/36/10 27/58/10 13/32/10
f 37/73/8 25/55/8 33/68/8
f 12/31/8 33/68/8 11/27/8
f 35/71/11 9/24/11 17/43/11
f 36/72/11 17/43/11 23/52/11
f 33/69/11 23/52/11 11/28/11
f 40/79/9 55/114/9 39/76/9
f 40/79/12 29/61/12 32/65/12
f 26/56/8 44/88/8 16/40/8
f 28/59/10 38/75/10 27/58/10
f 49/101/12 47/95/12 55/115/12
f 41/80/12 55/115/12 56/119/12
f 42/82/12 56/119/12 53/110/12
f 43/86/12 50/102/12 44/87/12
f 52/108/12 45/90/12 50/102/12
f 51/104/12 46/92/12 45/90/12
f 53/110/12 52/108/12 43/86/12
f 55/115/12 54/112/12 51/104/12
f 20/47/9 46/93/9 14/35/9
f 16/41/9 50/103/9 24/53/9
f 14/36/10 54/113/10 28/59/10
f 21/48/7 42/83/7 12/30/7
f 29/62/7 52/109/7 32/66/7
f 39/77/8 51/106/8 29/60/8
f 12/31/8 53/111/8 37/73/8
f 34/70/10 48/99/10 10/25/10
f 21/48/7 12/30/7 11/29/7
f 26/56/8 16/40/8 15/38/8
f 20/47/9 14/35/9 13/33/9
f 34/70/10 10/25/10 9/23/10
f 19/45/11 13/34/11 27/57/11
f 28/59/10 54/113/10 47/96/10
f 24/53/9 50/103/9 45/91/9
f 22/50/11 19/45/11 30/63/11
f 24/53/9 20/47/9 19/46/9
f 10/26/7 18/44/7 17/42/7
f 16/41/9 24/53/9 22/49/9
f 15/39/11 22/50/11 31/64/11
f 37/73/8 53/111/8 43/85/8
f 18/44/7 21/48/7 23/51/7
f 10/26/7 48/97/7 49/100/7
f 25/54/11 31/64/11 36/72/11
f 31/64/11 30/63/11 35/71/11
f 32/67/10 52/107/10 56/117/10
f 18/44/7 49/100/7 41/81/7
f 30/63/11 27/57/11 38/74/11
f 14/36/10 28/59/10 27/58/10
f 37/73/8 26/56/8 25/55/8
f 12/31/8 37/73/8 33/68/8
f 35/71/11 38/74/11 9/24/11
f 36/72/11 35/71/11 17/43/11
f 33/69/11 36/72/11 23/52/11
f 40/79/9 56/118/9 55/114/9
f 40/79/12 39/76/12 29/61/12
f 26/56/8 43/85/8 44/88/8
f 28/59/10 34/70/10 38/75/10
f 49/101/12 48/98/12 47/95/12
f 41/80/12 49/101/12 55/115/12
f 42/82/12 41/80/12 56/119/12
f 43/86/12 52/108/12 50/102/12
f 52/108/12 51/104/12 45/90/12
f 51/104/12 54/112/12 46/92/12
f 53/110/12 56/119/12 52/108/12
f 55/115/12 47/95/12 54/112/12
f 20/47/9 45/91/9 46/93/9
f 16/41/9 44/89/9 50/103/9
f 14/36/10 46/94/10 54/113/10
f 21/48/7 41/81/7 42/83/7
f 29/62/7 51/105/7 52/109/7
f 39/77/8 55/116/8 51/106/8
f 12/31/8 42/84/8 53/111/8
f 34/70/10 47/96/10 48/99/10
