# Blender 3.3.1
# www.blender.org
mtllib porygon.mtl
o Porygon
v -4.374909 12.471050 -36.141727
v 30.828789 12.471051 -36.141731
v 7.359649 8.617729 19.205572
v -15.364590 8.617728 19.205574
v -4.374908 -13.110406 -36.141727
v 30.828789 -13.110405 -36.141731
v 7.359650 -8.753305 19.205572
v -15.364590 -8.753306 19.205574
v -26.823656 25.736206 -20.325588
v -26.823652 -25.355156 -20.325588
v 40.012363 -25.355152 -20.325594
v 40.012363 25.736210 -20.325594
v 40.012363 25.736210 -14.458302
v 40.012363 -25.355152 -14.458302
v 20.403591 -15.385347 5.757690
v 20.119133 15.307040 6.050947
v -17.803295 12.260859 10.792667
v -17.822512 -12.314326 10.726318
v -7.434178 25.736208 -20.325590
v -6.875609 -25.355154 -20.325590
v -11.296191 -22.077280 -11.749860
v -10.548835 22.120470 -11.180992
v 24.555756 -13.829232 51.609161
v 24.555756 -21.513603 34.843231
v 25.254332 -21.513603 21.570238
v -17.359026 -21.513605 13.885847
v -46.000786 -18.020702 13.885849
v -60.670967 -9.637740 27.857458
v -46.699375 -13.829235 37.637581
v -44.603626 -18.020702 29.953199
v -28.536289 -19.417860 36.240417
v -18.756182 -21.513605 32.048943
v -9.674651 -21.513605 39.733315
v -6.181758 -13.829233 53.006317
v -20.851917 -13.130643 51.609169
v -33.426350 -13.130644 45.321953
v 24.555756 13.732934 51.609161
v 24.555756 21.417311 34.843231
v 25.254332 21.417311 21.570238
v -17.359026 21.417309 13.885847
v -46.000786 17.924379 13.885849
v -60.670967 9.541461 27.857458
v -46.699375 13.732931 37.637581
v -44.603626 17.924379 29.953199
v -28.536289 19.321560 36.240417
v -18.756182 21.417309 32.048943
v -9.674653 21.417284 39.733315
v -6.181759 13.732933 53.006317
v -20.851917 13.034343 51.609169
v -33.426350 13.034342 45.321953
v -60.670967 9.541461 15.283030
v -60.670967 -9.637740 15.283030
v -27.157591 48.304028 -40.798702
v 34.043896 48.304028 -40.798706
v 34.043896 48.304028 -25.583809
v -27.157587 48.304028 -31.923378
v -27.157591 25.554056 -40.798702
v 34.043884 25.554060 -40.798706
v 34.043884 25.554060 -25.583809
v -27.157587 25.554056 -31.923378
v 11.201084 48.286434 -12.904700
v 11.201085 25.536463 -12.904700
v -27.536932 -25.590694 -40.924698
v 33.664566 -25.590691 -40.924702
v 33.664566 -25.590691 -25.709805
v -27.536928 -25.590694 -32.049377
v -27.536932 -48.340656 -40.924698
v 33.664555 -48.340656 -40.924702
v 33.664555 -48.340656 -25.709805
v -27.536928 -48.340656 -32.049377
v 10.821755 -25.608313 -13.030700
v 10.821756 -48.358318 -13.030700
v 31.028654 10.120093 -35.622547
v 77.363655 2.159538 0.125525
v 77.358749 2.159538 4.550238
v 39.994324 10.120094 -20.157551
v 31.028654 -10.650100 -35.622547
v 77.363655 -2.068863 0.125525
v 77.358749 -2.068863 4.550238
v 39.994324 -10.650099 -20.157551
v 39.843784 10.120094 -35.612782
v 39.843784 -10.650099 -35.612782
vn -0.0000 -0.0000 -1.0000
vn -0.0000 -0.0000 1.0000
vn -0.5760 -0.0000 -0.8175
vn -0.0000 -0.7907 -0.6122
vn -0.0272 0.9188 0.3939
vn -0.0252 0.9169 0.3983
vn -0.0231 0.9149 0.4029
vn -0.0004 0.7662 -0.6426
vn -0.0000 0.7662 -0.6426
vn 0.8648 -0.0000 -0.5021
vn 1.0000 -0.0000 -0.0000
vn 0.7178 -0.0000 0.6962
vn -0.0248 -0.9212 0.3883
vn -0.0268 -0.9230 0.3838
vn -0.0228 -0.9194 0.3927
vn -0.9605 -0.0000 0.2784
vn -0.1660 -0.9568 0.2387
vn 0.0002 -0.9340 0.3572
vn 0.0172 -0.9296 0.3683
vn -0.0000 -0.9341 0.3570
vn 0.0210 -0.9285 0.3707
vn -0.0201 -0.9169 0.3987
vn -0.0227 -0.9193 0.3930
vn 0.0201 0.9245 0.3807
vn -0.0000 0.9299 0.3677
vn 0.0194 0.9247 0.3803
vn 0.0007 0.9298 0.3682
vn -0.1708 0.9541 0.2460
vn -0.0231 0.9149 0.4030
vn -0.0204 0.9123 0.4089
vn -0.0996 -0.9950 0.0044
vn -0.0965 -0.9952 0.0135
vn -0.0733 -0.9972 0.0136
vn -0.2408 -0.8243 0.5124
vn -0.2813 -0.8512 0.4431
vn -0.1541 -0.8756 0.4577
vn -0.0000 -1.0000 -0.0000
vn 0.0133 -0.8748 0.4844
vn 0.0330 -0.8588 0.5112
vn 0.0487 -0.8467 0.5298
vn -0.0909 0.9956 0.0231
vn -0.0895 0.9960 -0.0075
vn -0.0967 0.9951 0.0213
vn -0.0000 1.0000 -0.0000
vn 0.0133 0.8748 0.4844
vn 0.0330 0.8589 0.5112
vn -0.0017 0.8870 0.4618
vn 0.0454 -0.0000 0.9990
vn -0.5735 -0.0000 0.8192
vn 0.9986 -0.0000 0.0526
vn -0.2813 0.8512 0.4431
vn -0.2408 0.8243 0.5124
vn -0.1881 0.8589 0.4763
vn -0.4707 0.8222 0.3201
vn -0.0948 -0.0000 0.9955
vn -0.4472 -0.0000 0.8944
vn -0.5010 -0.0000 0.8654
vn -0.0751 0.8094 0.5824
vn -0.2286 0.8581 0.4598
vn -0.2543 -0.8581 0.4460
vn -0.2509 -0.8510 0.4613
vn -0.2471 -0.8417 0.4801
vn 0.1775 -0.0000 -0.9841
vn -0.4955 0.8678 0.0388
vn -0.4915 0.8698 0.0442
vn -0.5099 0.8600 0.0197
vn -0.0948 -0.0000 -0.9955
vn -1.0000 -0.0000 -0.0000
vn -0.4951 -0.8689 0.0015
vn -0.4989 -0.8666 -0.0039
vn -0.5129 -0.8581 -0.0237
vn -0.4707 -0.8222 0.3201
vn 0.0004 1.0000 -0.0000
vn 0.0004 1.0000 -0.0003
vn 0.0004 1.0000 -0.0001
vn 0.0001 -1.0000 -0.0001
vn -0.0003 -1.0000 -0.0003
vn 0.0003 -1.0000 -0.0004
vn -0.4442 -0.0000 0.8959
vn 0.4853 -0.0000 0.8743
vn 0.0006 1.0000 -0.0001
vn -0.0003 -1.0000 0.0002
vn 0.0003 -1.0000 -0.0000
vn 0.3484 0.9182 -0.1887
vn 0.2661 0.9561 -0.1224
vn 0.4153 0.8459 -0.3345
vn 1.0000 -0.0000 0.0011
vn -0.5516 -0.0000 0.8341
vn -0.8651 -0.0000 0.5015
vn 0.2134 -0.9770 -0.0001
vn 0.1081 -0.9941 0.0010
vn 0.2554 -0.9668 0.0016
vn 0.6897 -0.0000 -0.7241
vn 0.0011 -0.0000 -1.0000
vn -0.0000 -0.1869 0.9824
vn -0.4284 -0.9033 0.0222
vn -0.0049 -0.9020 0.4318
vn -0.4390 0.8982 0.0229
vn -0.0050 0.8968 0.4425
vn -0.0812 -0.9967 -0.0004
vn -0.1782 -0.9836 -0.0272
vn 0.0180 -0.7745 0.6323
vn -0.5072 -0.6641 0.5493
vn -0.1294 -0.9796 0.1540
vn -0.0017 -0.8870 0.4618
vn -0.1036 0.9846 0.1405
vn -0.0807 0.9965 -0.0203
vn 0.0487 0.8467 0.5298
vn -0.1294 0.9796 0.1540
vn -0.5072 0.6641 0.5493
vn -0.2331 0.8674 0.4397
vn -0.2591 -0.8671 0.4255
vn -0.4799 0.8752 0.0602
vn -0.4839 -0.8750 0.0169
vn 0.0004 1.0000 0.0007
vn 0.0008 -1.0000 -0.0000
vn -0.0005 -1.0000 -0.0000
vn 0.0003 1.0000 0.0008
vn 0.0007 -1.0000 0.0003
vn -0.0005 -1.0000 0.0003
vn 0.3508 0.9177 -0.1862
vn 0.1438 0.9886 0.0443
vn 0.2554 -0.9668 0.0019
vn 0.0356 -0.9994 0.0018
vt 0.041093 0.451095
vt 0.873700 0.079425
vt 0.123182 0.090844
vt 0.041093 0.052812
vt 0.357287 0.090844
vt 0.439376 0.451095
vt 0.092809 0.133153
vt 0.439376 0.052812
vt 0.357287 0.090844
vt 0.352283 0.133153
vt 0.106072 0.125603
vt 0.429629 0.313491
vt 0.439376 0.451095
vt 0.873700 0.279950
vt 0.357287 0.090844
vt 0.123182 0.090844
vt 0.439376 0.052812
vt 0.092809 0.392627
vt 0.439376 0.451095
vt 0.357287 0.090844
vt 0.352283 0.392627
vt 0.106072 0.280647
vt 0.123182 0.090844
vt 0.673175 0.079425
vt 0.873700 0.279950
vt 0.439376 0.052812
vt 0.050840 0.313491
vt 0.873700 0.079425
vt 0.277199 0.136863
vt 0.673175 0.279950
vt 0.429629 0.313491
vt 0.873700 0.279950
vt 0.050840 0.313491
vt 0.041093 0.052812
vt 0.439376 0.052812
vt 0.429629 0.313491
vt 0.041093 0.451095
vt 0.429629 0.313491
vt 0.439376 0.451095
vt 0.123182 0.090844
vt 0.041093 0.451095
vt 0.439376 0.451095
vt 0.357287 0.090844
vt 0.041093 0.052812
vt 0.439376 0.052812
vt 0.357287 0.090844
vt 0.041093 0.451095
vt 0.041093 0.052812
vt 0.123182 0.090844
vt 0.429629 0.313491
vt 0.041093 0.451095
vt 0.041093 0.052812
vt 0.429629 0.313491
vt 0.123182 0.090844
vt 0.261115 0.125603
vt 0.673175 0.079425
vt 0.240234 0.451095
vt 0.873700 0.079425
vt 0.673175 0.279950
vt 0.261115 0.280647
vt 0.050840 0.313491
vt 0.041093 0.052812
vt 0.240234 0.451095
vt 0.050840 0.313491
vt 0.277199 0.339699
vt 0.240234 0.451095
vt 0.673175 0.079425
vt 0.074363 0.136863
vt 0.050840 0.313491
vt 0.240234 0.451095
vt 0.873700 0.079425
vt 0.439376 0.451095
vt 0.240234 0.451095
vt 0.050840 0.313491
vt 0.439376 0.451095
vt 0.357287 0.090844
vt 0.041093 0.451095
vt 0.439376 0.052812
vt 0.429629 0.313491
vt 0.439376 0.451095
vt 0.429629 0.313491
vt 0.240234 0.451095
vt 0.041093 0.451095
vt 0.439376 0.451095
vt 0.041093 0.451095
vt 0.240234 0.451095
vt 0.673175 0.079425
vt 0.873700 0.079425
vt 0.873700 0.279950
vt 0.673175 0.079425
vt 0.873700 0.279950
vt 0.439376 0.451095
vt 0.439376 0.052812
vt 0.873700 0.279950
vt 0.050840 0.313491
vt 0.439376 0.451095
vt 0.873700 0.079425
vt 0.123182 0.090844
vt 0.655739 0.960488
vt 0.041093 0.451095
vt 0.357287 0.090844
vt 0.759539 0.883821
vt 0.050840 0.313491
vt 0.041093 0.052812
vt 0.759539 0.730486
vt 0.123182 0.090844
vt 0.655739 0.653818
vt 0.439376 0.052812
vt 0.041093 0.451095
vt 0.551940 0.730486
vt 0.439376 0.451095
vt 0.041093 0.451095
vt 0.041093 0.052812
vt 0.551940 0.883821
vt 0.439376 0.451095
vt 0.041093 0.451095
vt 0.041093 0.052812
vt 0.041093 0.451095
vt 0.439376 0.052812
vt 0.041093 0.052812
vt 0.429629 0.313491
vt 0.439376 0.052812
vt 0.357287 0.090844
vt 0.041093 0.451095
vt 0.439376 0.052812
vt 0.041093 0.052812
vt 0.357287 0.090844
vt 0.123182 0.090844
vt 0.439376 0.052812
vt 0.123182 0.090844
vt 0.041093 0.052812
vt 0.673175 0.279950
vt 0.673175 0.079425
vt 0.873700 0.079425
vt 0.873700 0.279950
vt 0.873700 0.079425
vt 0.673175 0.279950
vt 0.439376 0.052812
vt 0.439376 0.451095
vt 0.050840 0.313491
vt 0.439376 0.052812
vt 0.873700 0.279950
vt 0.240234 0.451095
vt 0.224857 0.748736
vt 0.041093 0.052812
vt 0.429629 0.313491
vt 0.050840 0.313491
vt 0.368060 0.683523
vt 0.240234 0.451095
vt 0.439376 0.451095
vt 0.511263 0.748736
vt 0.041093 0.052812
vt 0.041093 0.451095
vt 0.511263 0.879161
vt 0.041093 0.052812
vt 0.368060 0.944374
vt 0.439376 0.052812
vt 0.041093 0.052812
vt 0.041093 0.451095
vt 0.224857 0.879161
vt 0.439376 0.052812
vt 0.673175 0.079425
vt 0.873700 0.279950
vt 0.673175 0.279950
vt 0.673175 0.079425
vt 0.673175 0.279950
vt 0.873700 0.079425
vt 0.714505 0.098573
vt 0.673175 0.279950
vt 0.673175 0.079425
vt 0.832370 0.098573
vt 0.673175 0.279950
vt 0.673175 0.079425
vt 0.868793 0.210670
vt 0.873700 0.279950
vt 0.678082 0.210670
vt 0.873700 0.279950
vt 0.873700 0.079425
vt 0.673175 0.079425
vt 0.873700 0.279950
vt 0.714505 0.098573
vt 0.873700 0.079425
vt 0.873700 0.279950
vt 0.678082 0.210670
vt 0.773438 0.279950
vt 0.873700 0.079425
vt 0.873700 0.079425
vt 0.832370 0.098573
vt 0.873700 0.279950
vt 0.773438 0.279950
vt 0.673175 0.079425
vt 0.673175 0.279950
vt 0.673175 0.279950
vt 0.673175 0.079425
vt 0.868793 0.210670
vt 0.714505 0.098573
vt 0.673175 0.279950
vt 0.673175 0.079425
vt 0.832370 0.098573
vt 0.673175 0.279950
vt 0.673175 0.079425
vt 0.868793 0.210670
vt 0.873700 0.279950
vt 0.678082 0.210670
vt 0.873700 0.279950
vt 0.873700 0.079425
vt 0.673175 0.079425
vt 0.873700 0.279950
vt 0.714505 0.098573
vt 0.873700 0.079425
vt 0.873700 0.279950
vt 0.678082 0.210670
vt 0.773438 0.279950
vt 0.873700 0.079425
vt 0.873700 0.079425
vt 0.832370 0.098573
vt 0.873700 0.279950
vt 0.773438 0.279950
vt 0.673175 0.079425
vt 0.673175 0.279950
vt 0.673175 0.279950
vt 0.673175 0.079425
vt 0.868793 0.210670
vt 0.714505 0.098573
vt 0.973999 0.076141
vt 0.873700 0.279950
vt 0.868793 0.210670
vt 0.610230 0.374925
vt 0.873700 0.079425
vt 0.610230 0.033182
vt 0.773438 0.279950
vt 0.873700 0.279950
vt 0.678082 0.210670
vt 0.673175 0.279950
vt 0.574583 0.076141
vt 0.973999 0.475557
vt 0.832370 0.098573
vt 0.873700 0.079425
vt 0.951973 0.374925
vt 0.678082 0.210670
vt 0.873700 0.279950
vt 0.951973 0.033182
vt 0.873700 0.079425
vt 0.773438 0.279950
vt 0.673175 0.079425
vt 0.574583 0.475557
vt 0.868793 0.210670
vt 0.832370 0.098573
vt 0.673175 0.079425
vt 0.673175 0.279950
vt 0.673175 0.279950
vt 0.673175 0.079425
vt 0.714505 0.098573
s 1
usemtl Material.001
f 6/17/1 1/1/1 2/4/1
f 7/18/2 4/10/2 8/21/2
f 1/2/3 10/30/3 9/24/3
f 10/31/4 6/16/4 11/33/4
f 17/56/5 22/71/6 9/25/7
f 12/38/8 1/3/9 9/27/9
f 11/34/10 2/6/10 12/37/10
f 11/35/11 13/41/11 14/44/11
f 16/52/12 7/19/12 15/47/12
f 15/48/12 13/42/12 16/51/12
f 21/67/13 18/58/14 10/32/15
f 18/60/16 4/11/16 17/55/16
f 17/56/16 10/32/16 18/59/16
f 11/36/17 15/49/18 21/69/19
f 21/68/19 10/29/20 20/65/21
f 15/50/22 8/23/23 18/61/14
f 19/62/24 9/26/25 22/72/26
f 16/53/27 12/40/28 19/64/24
f 4/12/29 16/54/30 22/74/6
f 26/81/31 31/98/32 30/95/33
f 32/102/34 34/107/35 36/114/36
f 25/79/37 33/106/37 32/103/37
f 24/78/38 34/109/39 33/104/40
f 46/146/41 41/130/42 44/140/43
f 38/121/44 40/128/44 46/147/44
f 38/122/45 48/153/46 37/117/47
f 34/108/48 37/118/48 48/152/48
f 28/88/49 43/137/49 42/133/49
f 37/119/11 24/77/11 38/120/11
f 24/78/50 39/124/50 38/120/50
f 48/154/51 46/148/52 50/160/53
f 42/133/54 43/136/54 44/142/54
f 49/157/55 34/109/55 48/152/55
f 50/161/56 35/112/56 49/155/56
f 43/138/57 36/116/57 50/158/57
f 45/145/58 43/139/59 50/159/53
f 29/93/60 31/100/61 36/113/62
f 39/125/63 26/83/63 40/126/63
f 41/131/1 26/84/1 27/85/1
f 42/134/64 41/132/65 51/162/66
f 52/167/67 41/132/67 27/87/67
f 28/88/68 51/164/68 52/165/68
f 27/87/69 28/89/70 52/166/71
f 29/90/72 28/88/72 30/94/72
f 55/174/73 53/168/74 56/176/75
f 58/182/1 53/169/1 54/170/1
f 59/186/11 54/172/11 55/173/11
f 60/187/68 53/169/68 57/179/68
f 62/195/76 57/181/77 58/184/78
f 61/191/79 60/189/79 62/193/79
f 59/186/80 61/192/80 62/194/80
f 65/202/81 63/196/74 66/204/75
f 68/210/1 63/197/1 64/198/1
f 69/214/11 64/200/11 65/201/11
f 70/215/68 63/197/68 67/207/68
f 72/223/37 67/209/82 68/212/83
f 71/219/79 70/217/79 72/221/79
f 69/214/80 71/220/80 72/222/80
f 74/227/84 73/224/85 76/233/86
f 79/242/87 74/228/87 75/230/87
f 79/243/88 76/234/88 80/245/88
f 80/246/89 73/225/89 77/236/89
f 80/247/90 82/253/91 78/240/92
f 81/249/93 78/241/93 82/251/93
f 77/238/94 81/250/94 82/252/94
f 6/17/1 5/13/1 1/1/1
f 7/18/2 3/7/2 4/10/2
f 1/2/3 5/14/3 10/30/3
f 11/33/4 20/66/1 10/31/4
f 10/31/4 5/15/4 6/16/4
f 9/27/9 19/63/95 12/38/8
f 12/38/8 2/5/9 1/3/9
f 11/34/10 6/17/10 2/6/10
f 11/35/11 12/39/11 13/41/11
f 16/52/12 3/8/12 7/19/12
f 15/48/12 14/45/12 13/42/12
f 18/60/16 8/22/16 4/11/16
f 17/56/16 9/28/16 10/32/16
f 21/69/19 20/66/21 11/36/17
f 11/36/17 14/46/96 15/49/18
f 18/61/14 21/70/13 15/50/22
f 15/50/22 7/20/97 8/23/23
f 19/64/24 22/73/26 16/53/27
f 16/53/27 13/43/98 12/40/28
f 22/74/6 17/57/5 4/12/29
f 4/12/29 3/9/99 16/54/30
f 30/95/33 27/86/100 26/81/31
f 26/81/31 32/101/101 31/98/32
f 36/114/36 31/99/102 32/102/34
f 32/102/34 33/105/103 34/107/35
f 34/107/35 35/110/104 36/114/36
f 32/103/37 26/82/37 25/79/37
f 25/79/37 24/76/37 33/106/37
f 24/78/38 23/75/105 34/109/39
f 44/140/43 45/143/106 46/146/41
f 46/146/41 40/127/107 41/130/42
f 46/147/44 47/149/44 38/121/44
f 38/121/44 39/123/44 40/128/44
f 38/122/45 47/150/108 48/153/46
f 34/108/48 23/75/48 37/118/48
f 28/88/49 29/91/49 43/137/49
f 37/119/11 23/75/11 24/77/11
f 24/78/50 25/80/50 39/124/50
f 50/160/53 49/156/109 48/154/51
f 48/154/51 47/151/110 46/148/52
f 46/148/52 45/144/58 50/160/53
f 49/157/55 35/111/55 34/109/55
f 50/161/56 36/115/56 35/112/56
f 43/138/57 29/92/57 36/116/57
f 45/145/58 44/141/111 43/139/59
f 29/93/60 30/96/112 31/100/61
f 39/125/63 25/80/63 26/83/63
f 41/131/1 40/129/1 26/84/1
f 42/134/64 44/142/113 41/132/65
f 52/167/67 51/163/67 41/132/67
f 28/88/68 42/135/68 51/164/68
f 27/87/69 30/97/114 28/89/70
f 56/176/75 61/190/115 55/174/73
f 55/174/73 54/171/74 53/168/74
f 58/182/1 57/180/1 53/169/1
f 59/186/11 58/183/11 54/172/11
f 60/187/68 56/177/68 53/169/68
f 58/184/78 59/185/116 62/195/76
f 62/195/76 60/188/117 57/181/77
f 61/191/79 56/178/79 60/189/79
f 59/186/80 55/175/80 61/192/80
f 66/204/75 71/218/118 65/202/81
f 65/202/81 64/199/74 63/196/74
f 68/210/1 67/208/1 63/197/1
f 69/214/11 68/211/11 64/200/11
f 70/215/68 66/205/68 63/197/68
f 68/212/83 69/213/119 72/223/37
f 72/223/37 70/216/120 67/209/82
f 71/219/79 66/206/79 70/217/79
f 69/214/80 65/203/80 71/220/80
f 76/233/86 75/231/121 74/227/84
f 74/227/84 81/248/122 73/224/85
f 79/242/87 78/239/87 74/228/87
f 79/243/88 75/232/88 76/234/88
f 80/246/89 76/235/89 73/225/89
f 78/240/92 79/244/123 80/247/90
f 80/247/90 77/237/124 82/253/91
f 81/249/93 74/229/93 78/241/93
f 77/238/94 73/226/94 81/250/94
